<?xml version="1.0" encoding="UTF-8"?>
<svg xmlns="http://www.w3.org/2000/svg" xmlns:xlink="http://www.w3.org/1999/xlink" width="512" height="512" viewBox="0 0 54 58" version="1.1"><!-- Generator: Sketch 51.3 (57544) - http://www.bohemiancoding.com/sketch --><title>003 - DNA Family Tree</title><desc>Created with Sketch.</desc><defs/><g id="Page-1" stroke="none" stroke-width="1" fill="none" fill-rule="evenodd"><g id="003---DNA-Family-Tree"><path d="M27,26.5518 C26.7810411,26.5518258 26.568133,26.4799429 26.394,26.3472 C25.8418,25.9263 21,22.126 21,18.2759 C20.9999571,17.9071916 21.2028074,17.5683729 21.5278258,17.3942783 C21.8528442,17.2201837 22.2472932,17.2390618 22.5542,17.4434 C23.3208,17.9534 25.6133,19.2759 27,19.2759 C27.5522847,19.2759 28,19.7236153 28,20.2759 C28,20.8281847 27.5522847,21.2759 27,21.2759 C25.8201536,21.1971777 24.6694557,20.8746186 23.6206,20.3286 C24.5216698,21.8175988 25.6636576,23.1466963 27,24.2617 C28.5,22.9717 31,20.3823 31,18.2759 C31,17.7236153 31.4477153,17.2759 32,17.2759 C32.5522847,17.2759 33,17.7236153 33,18.2759 C33,22.1259 28.1582,25.9259 27.606,26.3472 C27.431867,26.4799429 27.2189589,26.5518258 27,26.5518 Z" id="Shape" fill="#7F5B53" fill-rule="nonzero"/><path d="M27,40 C26.8182574,40.0000223 26.6399658,39.9503662 26.4844,39.8564 C26.26,39.7217 21,36.5059 21,32.2759 C21,28.0459 26.26,24.8301 26.4844,24.6948 C26.8017654,24.5043947 27.1982346,24.5043947 27.5156,24.6948 C27.74,24.83 33,28.0454 33,32.2759 C33,36.5064 27.74,39.7217 27.5156,39.8564 C27.3600342,39.9503662 27.1817426,40.0000223 27,40 Z M27.001,26.7456 C25.541,27.7627 23,30.0056 23,32.2756 C23,34.5549 25.5391,36.7922 26.999,37.8056 C28.459,36.788 31,34.5456 31,32.2756 C31,29.9961 28.4609,27.7593 27.001,26.7456 Z" id="Shape" fill="#7F5B53" fill-rule="nonzero"/><path d="M32,47 C31.4477153,47 31,46.5522847 31,46 C31,43.8916 28.4883,41.4434 27.001,40.2539 C25.5132,41.4458 23,43.8979 23,46 C23,46.5522847 22.5522847,47 22,47 C21.4477153,47 21,46.5522847 21,46 C21,42.1284 25.8677,38.5757 26.4229,38.1836 C26.7685985,37.9385042 27.2314015,37.9385042 27.5771,38.1836 C28.1323,38.5757 33,42.1284 33,46 C33,46.5522847 32.5522847,47 32,47 Z" id="Shape" fill="#7F5B53" fill-rule="nonzero"/><path d="M37.9491,46 C38.232328,46.001111 38.5020537,46.1211874 38.692413,46.3309078 C38.8827723,46.5406283 38.9762428,46.8206882 38.95,47.1027 C38.3800888,53.2769366 33.2004835,58.0004585 27,58.0004585 C20.7995165,58.0004585 15.6199112,53.2769366 15.05,47.1027 C15.0237572,46.8206882 15.1172277,46.5406283 15.307587,46.3309078 C15.4979463,46.1211874 15.767672,46.001111 16.0509,46 L37.9491,46 Z" id="Shape" fill="#CB8252"/><path d="M28,31.2759 L26,31.2759 C25.4477153,31.2759 25,30.8281847 25,30.2759 C25,29.7236153 25.4477153,29.2759 26,29.2759 L28,29.2759 C28.5522847,29.2759 29,29.7236153 29,30.2759 C29,30.8281847 28.5522847,31.2759 28,31.2759 Z" id="Shape" fill="#7F5B53" fill-rule="nonzero"/><path d="M28,35.2759 L26,35.2759 C25.4477153,35.2759 25,34.8281847 25,34.2759 C25,33.7236153 25.4477153,33.2759 26,33.2759 L28,33.2759 C28.5522847,33.2759 29,33.7236153 29,34.2759 C29,34.8281847 28.5522847,35.2759 28,35.2759 Z" id="Shape" fill="#7F5B53" fill-rule="nonzero"/><path d="M27,21.2759 C26.4477153,21.2759 26,20.8281847 26,20.2759 C26,19.7236153 26.4477153,19.2759 27,19.2759 C28.3867,19.2759 30.6792,17.9531 31.4458,17.4434 C31.905439,17.1371857 32.5262857,17.261561 32.8325,17.7212 C33.1387142,18.180839 33.014339,18.8016857 32.5547,19.1079 C32.2217,19.33 29.2383,21.2759 27,21.2759 Z" id="Shape" fill="#AF8066" fill-rule="nonzero"/><path d="M27,21.2759 C27.5522847,21.2759 28,20.8281847 28,20.2759 C28,19.7236153 27.5522847,19.2759 27,19.2759 C25.6133,19.2759 23.3208,17.9531 22.5542,17.4434 C22.094561,17.1371857 21.4737143,17.261561 21.1675,17.7212 C20.8612857,18.180839 20.985661,18.8016857 21.4453,19.1079 C21.7783,19.33 24.7617,21.2759 27,21.2759 Z" id="Shape" fill="#AF8066" fill-rule="nonzero"/><path d="M22,19.2759 C21.7240665,19.2761033 21.4603577,19.1620768 21.2715,18.9609 C18.5389584,16.4520109 14.7962949,15.3542615 11.1415,15.9897 C10.7840262,16.048551 10.4226791,15.9094563 10.1969311,15.6261035 C9.9711832,15.3427506 9.91634439,14.9594599 10.0535814,14.6241735 C10.1908183,14.2888871 10.4986654,14.0540483 10.8583,14.0103 C15.1582503,13.2806248 19.5518008,14.6064134 22.7304,17.5928 C23.0025503,17.8837649 23.0760224,18.3085175 22.9174205,18.6739923 C22.7588187,19.039467 22.3984048,19.2759299 22,19.2759 Z" id="Shape" fill="#AF8066" fill-rule="nonzero"/><path d="M17.9707,16.76 C17.569237,16.7601363 17.2066114,16.520171 17.0498,16.1506 C16.392844,13.7833928 15.975381,11.3561706 15.8037,8.9055 C15.7653946,8.54551415 15.9246409,8.19293536 16.2200522,7.98367656 C16.5154636,7.77441777 16.900905,7.74115938 17.2277955,7.89672191 C17.554686,8.05228444 17.7719745,8.37237336 17.7959,8.7336 C17.9614079,10.9735159 18.3277799,13.194038 18.8906,15.3684 C19.0215051,15.6772779 18.9889803,16.031194 18.8039717,16.3110396 C18.6189631,16.5908852 18.3060719,16.7594483 17.9706,16.76 L17.9707,16.76 Z" id="Shape" fill="#AF8066" fill-rule="nonzero"/><path d="M8,22.84 C7.99207892,23.0002754 7.99877324,23.1609391 8.02,23.32 C7.87300127,23.4766642 7.71600572,23.6236387 7.55,23.76 C5.83,25.15 1,25.22 1,25.22 C1,25.22 2.05,20.5 3.76,19.1 C5.48,17.71 7.72,17.62 8.76,18.91 C8.98675079,19.1880701 9.1413263,19.5178312 9.21,19.87 C8.46762235,20.6854351 8.03882689,21.7379331 8,22.84 Z" id="Shape" fill="#4FBA6F"/><path d="M3.4215,12.1983 C1.5639,11.0026 0,6.4283 0,6.4283 C0,6.4283 4.8113,5.9574 6.6689,7.1531 C8.5265,8.3488 9.3054,10.4475 8.4089,11.8407 C7.5124,13.2339 5.2791,13.394 3.4215,12.1983 Z" id="Shape" fill="#4FBA6F"/><path d="M17.28,8.25 C17.1534935,8.46585374 16.9911765,8.65860519 16.8,8.82 C16.74,8.87 16.67,8.92 16.6,8.97 C15.22,9.9 13.11,9.16 11.88,7.32 C10.64,5.49 11.02,0.67 11.02,0.67 C11.02,0.67 15.5,2.11 16.8,3.9 C16.82,3.93 16.84,3.95 16.86,3.98 C16.95,4.12 17.03,4.25 17.11,4.39" id="Shape" fill="#71C285"/><path d="M17.19,4.1784 C18.12,2.1747 22.4375,0 22.4375,0 C22.4375,0 23.5618,4.7018 22.6314,6.7054 C21.701,8.709 19.7285,9.7676 18.2257,9.0698 C16.7229,8.372 16.2591,6.182 17.19,4.1784 Z" id="Shape" fill="#4FBA6F"/><path d="M14,23.15 C13.88,25.36 10.69,28.99 10.69,28.99 C10.69,28.99 8.26,25.57 8.02,23.32 C7.99877324,23.1609391 7.99207892,23.0002754 8,22.84 C8.03882689,21.7379331 8.46762235,20.6854351 9.21,19.87 C9.71414069,19.2970424 10.4471353,18.9781897 11.21,19 C12.86,19.09 14.11,20.95 14,23.15 Z" id="Shape" fill="#71C285"/><path d="M32.0005,19.2739 C31.6025159,19.2740667 31.2423731,19.0380594 31.0836706,18.673087 C30.9249681,18.3081146 30.9979643,17.8837634 31.2695,17.5928 C34.4477328,14.6057657 38.8415629,13.2797817 43.1416,14.01 C43.5012346,14.0537483 43.8090817,14.2885871 43.9463186,14.6238735 C44.0835556,14.9591599 44.0287168,15.3424506 43.8029689,15.6258035 C43.5772209,15.9091563 43.2158738,16.048251 42.8584,15.9894 C39.203503,15.3536868 35.460651,16.4516763 32.7284,18.9611 C32.5390753,19.1609849 32.2758139,19.274116 32.0005,19.2739 Z" id="Shape" fill="#AF8066" fill-rule="nonzero"/><path d="M36.0293,16.76 C35.6938281,16.7594483 35.3809369,16.5908852 35.1959283,16.3110396 C35.0109197,16.031194 34.9783949,15.6772779 35.1093,15.3684 C35.6721201,13.194038 36.0384921,10.9735159 36.204,8.7336 C36.2279255,8.37237336 36.445214,8.05228444 36.7721045,7.89672191 C37.098995,7.74115938 37.4844364,7.77441777 37.7798478,7.98367656 C38.0752591,8.19293536 38.2345054,8.54551415 38.1962,8.9055 C38.0245063,11.356275 37.6070096,13.7835987 36.95,16.1509 C36.7931248,16.5202865 36.4306181,16.7601071 36.0293,16.76 Z" id="Shape" fill="#AF8066" fill-rule="nonzero"/><path d="M53,25.22 C53,25.22 48.17,25.15 46.45,23.76 C46.2839943,23.6236387 46.1269987,23.4766642 45.98,23.32 C46.0012268,23.1609391 46.0079211,23.0002754 46,22.84 C45.9611731,21.7379331 45.5323777,20.6854351 44.79,19.87 C44.8586737,19.5178312 45.0132492,19.1880701 45.24,18.91 C46.28,17.62 48.52,17.71 50.24,19.1 C51.95,20.5 53,25.22 53,25.22 Z" id="Shape" fill="#4FBA6F"/><path d="M50.5785,12.1983 C52.4361,11.0026 54,6.4283 54,6.4283 C54,6.4283 49.1887,5.9574 47.3311,7.1531 C45.4735,8.3488 44.6946,10.4475 45.5911,11.8407 C46.4876,13.2339 48.7209,13.394 50.5785,12.1983 Z" id="Shape" fill="#4FBA6F"/><path d="M36.89,4.39 C36.97,4.25 37.05,4.12 37.14,3.98 C37.16,3.95 37.18,3.93 37.2,3.9 C38.5,2.11 42.98,0.67 42.98,0.67 C42.98,0.67 43.36,5.49 42.12,7.32 C40.89,9.16 38.78,9.9 37.4,8.97 C37.33,8.92 37.26,8.87 37.2,8.82 C37.0088235,8.65860519 36.8465065,8.46585374 36.72,8.25" id="Shape" fill="#71C285"/><path d="M36.8105,4.1784 C35.88,2.1747 31.5625,0 31.5625,0 C31.5625,0 30.4382,4.7018 31.3686,6.7054 C32.299,8.709 34.2715,9.7676 35.7743,9.0698 C37.2771,8.372 37.7409,6.182 36.8105,4.1784 Z" id="Shape" fill="#4FBA6F"/><path d="M46,22.84 C46.0079211,23.0002754 46.0012268,23.1609391 45.98,23.32 C45.74,25.57 43.31,28.99 43.31,28.99 C43.31,28.99 40.12,25.36 40,23.15 C39.89,20.95 41.14,19.09 42.79,19 C43.5528647,18.9781897 44.2858593,19.2970424 44.79,19.87 C45.5323777,20.6854351 45.9611731,21.7379331 46,22.84 Z" id="Shape" fill="#71C285"/><path d="M22,50 C21.7349187,49.9978723 21.480769,49.8940647 21.29,49.71 C21.25,49.66 21.21,49.61 21.17,49.56 C21.132172,49.504244 21.101908,49.443716 21.08,49.38 C21.0496265,49.3204221 21.029351,49.2562165 21.02,49.19 C21.0082893,49.1272996 21.0016014,49.0637646 21,49 C21.0036835,48.735233 21.1072663,48.4816338 21.29,48.29 C21.34,48.25 21.39,48.21 21.44,48.17 C21.4957944,48.1322377 21.5563135,48.1019781 21.62,48.08 C21.6766601,48.0511067 21.737336,48.0308814 21.8,48.02 C21.9316101,47.9896843 22.0683899,47.9896843 22.2,48.02 C22.262664,48.0308814 22.3233399,48.0511067 22.38,48.08 C22.443716,48.101908 22.504244,48.132172 22.56,48.17 C22.61,48.21 22.66,48.25 22.71,48.29 C22.7981227,48.3873598 22.869126,48.4989365 22.92,48.62 C22.971241,48.7402223 22.99842,48.8693227 23,49 C22.9959431,49.2646908 22.8924138,49.5181592 22.71,49.71 C22.519231,49.8940647 22.2650813,49.9978723 22,50 Z" id="Shape" fill="#804537" fill-rule="nonzero"/><path d="M22,53 C21.9329713,52.9976607 21.8661646,52.99098 21.8,52.98 C21.7373999,52.9688658 21.6767606,52.9486527 21.62,52.92 C21.5563135,52.8980219 21.4957944,52.8677623 21.44,52.83 C21.39,52.79 21.34,52.75 21.29,52.71 C21.1073844,52.5182897 21.0038214,52.2647389 21,52 C21.00158,51.8693227 21.028759,51.7402223 21.08,51.62 C21.1307152,51.4988534 21.2017349,51.3872512 21.29,51.29 C21.3373619,51.2468095 21.3874664,51.2067259 21.44,51.17 C21.4957944,51.1322377 21.5563135,51.1019781 21.62,51.08 C21.6766601,51.0511067 21.737336,51.0308814 21.8,51.02 C21.9316101,50.9896843 22.0683899,50.9896843 22.2,51.02 C22.262664,51.0308814 22.3233399,51.0511067 22.38,51.08 C22.443716,51.101908 22.504244,51.132172 22.56,51.17 C22.6123461,51.2069758 22.6624354,51.2470473 22.71,51.29 C22.8003288,51.3856601 22.8716001,51.4976578 22.92,51.62 C23.0267162,51.8620948 23.0267162,52.1379052 22.92,52.38 C22.8714288,52.5022547 22.800177,52.6142217 22.71,52.71 C22.66,52.75 22.61,52.79 22.56,52.83 C22.504244,52.867828 22.443716,52.898092 22.38,52.92 C22.3232394,52.9486527 22.2626001,52.9688658 22.2,52.98 C22.1338381,52.9910004 22.0670301,52.9976812 22,53 Z" id="Shape" fill="#804537" fill-rule="nonzero"/><path d="M27,50 C26.8693227,49.99842 26.7402223,49.971241 26.62,49.92 C26.4989365,49.869126 26.3873598,49.7981227 26.29,49.71 C26.1996808,49.6143324 26.1284108,49.5023366 26.08,49.38 C26.0287342,49.2597855 26.0015541,49.1306801 26,49 C26.0036835,48.735233 26.1072663,48.4816338 26.29,48.29 C26.3872512,48.2017349 26.4988534,48.1307152 26.62,48.08 C26.9924897,47.9242958 27.4220218,48.0070497 27.71,48.29 C27.8024006,48.3840297 27.8739545,48.4964715 27.92,48.62 C28.0267162,48.8620948 28.0267162,49.1379052 27.92,49.38 C27.7760763,49.7610386 27.4071998,50.0096292 27,50 Z" id="Shape" fill="#804537" fill-rule="nonzero"/><path d="M27,53 C26.8693227,52.99842 26.7402223,52.971241 26.62,52.92 C26.2391181,52.7758784 25.990613,52.4071289 26,52 C26.00158,51.8693227 26.028759,51.7402223 26.08,51.62 C26.1717573,51.3693008 26.3693008,51.1717573 26.62,51.08 C26.9924897,50.9242958 27.4220218,51.0070497 27.71,51.29 C27.8003288,51.3856601 27.8716001,51.4976578 27.92,51.62 C27.971241,51.7402223 27.99842,51.8693227 28,52 C28.0027011,52.2660353 27.8982118,52.5219616 27.7100867,52.7100867 C27.5219616,52.8982118 27.2660353,53.0027011 27,53 Z" id="Shape" fill="#804537" fill-rule="nonzero"/><path d="M32,50 C31.5956764,49.9983571 31.231783,49.7543635 31.0767379,49.3809451 C30.9216928,49.0075267 31.0057477,48.5775429 31.29,48.29 C31.3872512,48.2017349 31.4988534,48.1307152 31.62,48.08 C31.9923971,47.9234033 32.4224393,48.0062554 32.71,48.29 C32.8003288,48.3856601 32.8716001,48.4976578 32.92,48.62 C32.971241,48.7402223 32.99842,48.8693227 33,49 C33.0027011,49.2660353 32.8982118,49.5219616 32.7100867,49.7100867 C32.5219616,49.8982118 32.2660353,50.0027011 32,50 Z" id="Shape" fill="#804537" fill-rule="nonzero"/><path d="M32,53 C31.8693227,52.99842 31.7402223,52.971241 31.62,52.92 C31.4989365,52.869126 31.3873598,52.7981227 31.29,52.71 C30.9006061,52.317413 30.9018995,51.683887 31.2928932,51.2928932 C31.683887,50.9018995 32.317413,50.9006061 32.71,51.29 C32.7981227,51.3873598 32.869126,51.4989365 32.92,51.62 C32.971241,51.7402223 32.99842,51.8693227 33,52 C33.0027011,52.2660353 32.8982118,52.5219616 32.7100867,52.7100867 C32.5219616,52.8982118 32.2660353,53.0027011 32,53 Z" id="Shape" fill="#804537" fill-rule="nonzero"/></g></g></svg>
